<?xml version="1.0" encoding="UTF-8"?>
<svg version="1.1" xmlns="http://www.w3.org/2000/svg" width="512" height="512">
<path d="M0 0 C1.41575148 -0.0034631 2.83150025 -0.00823202 4.24724346 -0.01418173 C8.11003758 -0.02663208 11.97260752 -0.02054877 15.83540213 -0.01122308 C20.01204309 -0.00440823 24.18864672 -0.01492588 28.36528015 -0.02316284 C36.53670472 -0.03647682 44.70804645 -0.03363276 52.87947422 -0.02492492 C59.52337608 -0.01813911 66.16725479 -0.01723553 72.81115913 -0.02049637 C73.75815298 -0.02095607 74.70514682 -0.02141577 75.68083744 -0.0218894 C77.6048828 -0.02284861 79.52892815 -0.02382125 81.45297349 -0.02480717 C99.47948214 -0.03335435 117.50594496 -0.02353773 135.53244609 -0.00740607 C150.98495629 0.00599432 166.43739886 0.00367 181.88990784 -0.01016235 C199.85206705 -0.0262338 217.81418612 -0.03252815 235.77635151 -0.02332556 C237.69347162 -0.02236996 239.61059174 -0.02142685 241.52771187 -0.02049637 C242.94244649 -0.01980213 242.94244649 -0.01980213 244.3857616 -0.01909386 C251.01771725 -0.01650851 257.64964735 -0.02086521 264.28159904 -0.02793503 C272.36950191 -0.03636772 280.45731749 -0.03403287 288.54521041 -0.0180928 C292.66823983 -0.0102335 296.79112395 -0.00707828 300.91415215 -0.01704025 C304.69485646 -0.02603662 308.47528197 -0.02097382 312.25596131 -0.0051076 C314.25773207 -0.00021501 316.25952247 -0.00991194 318.26127237 -0.02027929 C335.23981271 0.08932195 350.30742351 5.2111872 362.63087463 17.21298218 C363.32567932 17.92841187 364.02048401 18.64384155 364.73634338 19.38095093 C365.57745667 20.19112671 365.57745667 20.19112671 366.43556213 21.01766968 C383.51710648 38.81654922 382.33218256 64.67410076 382.24458301 87.47074139 C382.23336694 91.54097925 382.24545045 95.61116222 382.25442505 99.68139648 C382.26828675 107.63211731 382.2608545 115.58267824 382.24574947 123.53339132 C382.2288063 132.80793249 382.23210995 142.08243475 382.23584355 151.35698662 C382.24170892 167.91196323 382.22760132 184.46686356 382.20289612 201.02182007 C382.1789676 217.05830747 382.17189811 233.09469302 382.18238831 249.13119507 C382.19381501 266.6305018 382.19570684 284.12976154 382.18129021 301.62906772 C382.1797645 303.49726251 382.17824414 305.36545731 382.1767292 307.23365211 C382.17597139 308.15264429 382.17521357 309.07163647 382.1744328 310.0184769 C382.16970442 316.47222689 382.17153102 322.92595578 382.1757946 329.37970543 C382.18073708 337.2500216 382.17466634 345.12024178 382.1549003 352.99053606 C382.14507524 357.00043726 382.13987108 361.01019274 382.14779282 365.02010155 C382.15491264 368.69952362 382.14790008 372.37865328 382.13018919 376.05803714 C382.12430664 378.00037827 382.13290506 379.94274717 382.1422357 381.88507479 C382.0614044 393.22766546 380.48175922 404.50745482 375.11134338 414.63095093 C374.76579407 415.29860474 374.42024475 415.96625854 374.06422424 416.65414429 C366.66052074 430.37828479 354.22034089 440.60389062 339.44360822 445.46392393 C330.53656793 447.99048482 322.44252411 448.95438377 313.13247681 448.8888855 C311.7284954 448.89350879 310.32451886 448.89987118 308.92055219 448.90779448 C305.10866189 448.9243156 301.29717805 448.91632117 297.48528731 448.9038496 C293.35634557 448.89472982 289.22746956 448.90880293 285.09854126 448.91976929 C277.02790263 448.93748625 268.95741343 448.93374497 260.88676912 448.92211872 C254.32260661 448.91305705 247.75848575 448.91187218 241.19431877 448.91621399 C240.25734786 448.91682692 239.32037696 448.91743985 238.35501299 448.91807136 C236.45110769 448.91935036 234.5472024 448.92064722 232.64329713 448.92196172 C214.82122247 448.9333477 196.99923032 448.92028533 179.1771692 448.89876026 C163.91242879 448.88089402 148.64781011 448.88399334 133.3830719 448.9024353 C115.62299726 448.92388219 97.86299482 448.93224617 80.10290903 448.91998625 C78.20600062 448.91871216 76.30909219 448.91745467 74.41218376 448.91621399 C73.47906248 448.91559689 72.5459412 448.91497979 71.58454351 448.91434398 C65.0350643 448.9109023 58.4856312 448.91669389 51.93615913 448.9261322 C43.94469398 448.93739623 35.95338581 448.93422028 27.96193845 448.91300923 C23.89100361 448.90255724 19.82032969 448.89827585 15.74939728 448.91160583 C-8.58418858 448.98456164 -31.65944241 448.52768445 -50.26365662 430.38095093 C-63.09161226 415.72921246 -67.74091756 400.23956154 -67.65133667 381.01049805 C-67.65551852 379.59530828 -67.66100067 378.18012187 -67.66765648 376.76494157 C-67.68201834 372.90827458 -67.67789565 369.05182297 -67.67048967 365.19514465 C-67.66573718 361.02324967 -67.67828615 356.85139989 -67.68850708 352.67951965 C-67.70565981 344.5189296 -67.70654243 336.35841668 -67.70129418 328.19781329 C-67.69724466 321.56157926 -67.6987053 314.92536793 -67.70404243 308.28913498 C-67.70479086 307.34285407 -67.70553928 306.39657317 -67.70631038 305.42161708 C-67.70784194 303.49894472 -67.70938028 301.57627237 -67.71092535 299.65360002 C-67.72463763 281.64324366 -67.71922164 263.6329308 -67.70774014 245.62257545 C-67.69780909 229.16574337 -67.71074847 212.70902375 -67.73467433 196.25220902 C-67.75908901 179.33094414 -67.76866738 162.40973159 -67.7620216 145.48844945 C-67.75853465 135.9977964 -67.76072681 126.5072298 -67.77827263 117.01659012 C-67.79302425 108.93753452 -67.79359145 100.85862626 -67.77620172 92.77957346 C-67.76771367 88.66232163 -67.76548806 84.54533269 -67.78085327 80.42809486 C-67.79477636 76.65033982 -67.78984071 72.87307097 -67.77061404 69.09534352 C-67.76512267 67.1000622 -67.77906165 65.10475565 -67.79396814 63.10952246 C-67.65416951 45.79860812 -61.67106644 30.13632992 -49.63865662 17.59579468 C-35.7745287 4.66658328 -18.57025073 -0.09601221 0 0 Z " fill="#5A7AE3" transform="translate(99.26365661621094,31.619049072265625)"/>
<path d="M0 0 C1.68633 0.00084772 3.37266111 0.0003683 5.05899048 -0.00132751 C9.60581346 -0.00218323 14.15239581 0.01537346 18.6991632 0.03639436 C23.46237811 0.05523221 28.22559941 0.05691718 32.98884583 0.06047058 C41.99481279 0.06977025 51.00066965 0.09435573 60.00658828 0.12451905 C72.18610713 0.1644204 84.3656564 0.18053474 96.54522419 0.1980257 C115.71488352 0.22617845 134.88431056 0.2859618 154.05395508 0.34057617 C154.05395508 25.09057617 154.05395508 49.84057617 154.05395508 75.34057617 C152.73395508 73.69057617 151.41395508 72.04057617 150.05395508 70.34057617 C145.53064085 66.36888563 142.29747745 64.96200687 136.17895508 65.06323242 C131.23403883 65.70861671 128.0982517 68.07658957 124.98242188 71.84790039 C122.50650894 76.33206426 122.49114742 79.65413962 122.55786133 84.68432617 C122.5564061 85.57164429 122.55495087 86.4589624 122.55345154 87.37316895 C122.55510573 89.24238379 122.56661308 91.11161293 122.58740234 92.98071289 C122.61636519 95.83172834 122.60799952 98.6808829 122.5949707 101.53198242 C122.60120873 103.35360599 122.60960017 105.17522371 122.62036133 106.99682617 C122.61742569 107.84386108 122.61449005 108.690896 122.61146545 109.56359863 C122.69050979 114.55541014 123.29579834 118.01593155 126.05395508 122.34057617 C130.97868823 126.78484755 134.00790191 127.70230453 140.51489258 127.61791992 C144.2785591 127.20681173 146.27185695 125.85771257 149.05395508 123.34057617 C150.44751272 121.38206273 151.79678055 119.38930504 153.05395508 117.34057617 C153.38395508 117.34057617 153.71395508 117.34057617 154.05395508 117.34057617 C154.05395508 126.58057617 154.05395508 135.82057617 154.05395508 145.34057617 C149.90833008 145.25807617 145.76270508 145.17557617 141.49145508 145.09057617 C117.64165947 144.95983006 97.71628548 153.20647166 80.30395508 169.65307617 C75.72984214 174.4068864 72.30176369 179.61824671 69.05395508 185.34057617 C68.59118164 186.15397461 68.1284082 186.96737305 67.65161133 187.80541992 C62.16709861 198.09096506 58.58460994 209.40254091 59.37817383 221.10620117 C60.52057629 239.32451407 60.52057629 239.32451407 56.70239258 244.00073242 C54.71024853 245.89051334 52.54383256 247.45991387 50.29614258 249.03198242 C38.84954156 257.18251399 31.19830553 273.80632389 28.48754883 287.36010742 C27.76589307 292.84557664 27.73370822 298.37828121 27.67895508 303.90307617 C27.66485596 304.94383301 27.65075684 305.98458984 27.63623047 307.05688477 C27.75694113 326.45921306 36.23696109 345.92874468 49.55395508 359.96557617 C62.07378241 371.85941213 76.38117276 378.64434553 93.05395508 382.34057617 C93.8288176 382.51632675 94.60368011 382.69207733 95.40202332 382.87315369 C98.23009463 383.37162206 100.89137144 383.50053535 103.76220703 383.54589844 C105.46673035 383.57617126 105.46673035 383.57617126 107.20568848 383.60705566 C108.38924927 383.62353149 109.57281006 383.64000732 110.79223633 383.65698242 C112.43597229 383.68495911 112.43597229 383.68495911 114.11291504 383.71350098 C118.19734817 383.78168073 122.28191098 383.84190463 126.36645508 383.90307617 C135.50333008 384.04745117 144.64020508 384.19182617 154.05395508 384.34057617 C154.05395508 405.46057617 154.05395508 426.58057617 154.05395508 448.34057617 C132.29541853 448.43108589 110.53703587 448.50467966 88.77835846 448.54782486 C78.67402883 448.56839589 68.56982501 448.59641136 58.46557617 448.64233398 C49.65236334 448.68236969 40.83924168 448.7080486 32.02594042 448.71693015 C27.36509434 448.72211673 22.70450896 448.73419147 18.04374695 448.7634964 C13.64424289 448.79093085 9.24510342 448.79896546 4.84552193 448.7930069 C3.24289013 448.79409475 1.64024434 448.80188005 0.0376873 448.81739807 C-19.61435452 448.9981337 -38.43407496 444.49569441 -52.94604492 430.34057617 C-65.77400056 415.6888377 -70.42330587 400.19918678 -70.33372498 380.97012329 C-70.33790682 379.55493352 -70.34338897 378.13974711 -70.35004479 376.72456682 C-70.36440665 372.86789983 -70.36028395 369.01144822 -70.35287797 365.1547699 C-70.34812549 360.98287491 -70.36067446 356.81102514 -70.37089539 352.6391449 C-70.38804812 344.47855485 -70.38893073 336.31804192 -70.38368248 328.15743853 C-70.37963297 321.5212045 -70.3810936 314.88499318 -70.38643074 308.24876022 C-70.38717916 307.30247932 -70.38792758 306.35619841 -70.38869869 305.38124233 C-70.39023024 303.45856997 -70.39176859 301.53589761 -70.39331365 299.61322527 C-70.40702594 281.60286891 -70.40160995 263.59255605 -70.39012844 245.58220069 C-70.3801974 229.12536862 -70.39313678 212.668649 -70.41706263 196.21183427 C-70.44147731 179.29056939 -70.45105568 162.36935683 -70.44440991 145.4480747 C-70.44092295 135.95742165 -70.44311511 126.46685505 -70.46066093 116.97621536 C-70.47541256 108.89715976 -70.47597976 100.8182515 -70.45859002 92.7391987 C-70.45010197 88.62194688 -70.44787637 84.50495793 -70.46324158 80.38772011 C-70.47716467 76.60996507 -70.47222902 72.83269622 -70.45300234 69.05496876 C-70.44751097 67.05968745 -70.46144996 65.06438089 -70.47635645 63.06914771 C-70.33655781 45.75823337 -64.35345474 30.09595516 -52.32104492 17.55541992 C-45.13070184 10.84995195 -37.23317445 6.50491902 -27.94604492 3.34057617 C-26.88802689 2.96652161 -26.88802689 2.96652161 -25.80863476 2.58491039 C-17.22576586 -0.12839336 -8.88871648 -0.06301658 0 0 Z " fill="#0095FE" transform="translate(101.946044921875,31.659423828125)"/>
<path d="M0 0 C1.30819702 0.00737183 1.30819702 0.00737183 2.64282227 0.01489258 C24.94348163 0.4149136 45.39849775 9.76089245 60.83447266 25.69775391 C70.43355104 36.18475497 77.1675301 49.50198002 80.3125 63.3125 C81.46363281 63.37566406 82.61476563 63.43882812 83.80078125 63.50390625 C108.23171968 65.23158182 126.76827823 75.03728615 143.56640625 92.6796875 C157.21753548 108.54812343 162.21756917 127.77245796 161.3125 148.3125 C161.869375 148.45945312 162.42625 148.60640625 163 148.7578125 C173.79808751 151.93157471 182.04662782 159.24951162 187.85546875 168.8671875 C194.08510391 180.88800843 195.70553645 194.72357896 191.75 207.8125 C188.6614571 215.70909374 183.67073175 222.7112006 177.3125 228.3125 C176.67828125 228.87710938 176.0440625 229.44171875 175.390625 230.0234375 C165.96822981 237.94225899 155.62912244 240.46282163 143.49223328 240.45967102 C142.7232264 240.46334771 141.95421952 240.4670244 141.1619094 240.4708125 C138.59450498 240.48179286 136.02714112 240.48568362 133.4597168 240.48950195 C131.61451592 240.49577114 129.7693163 240.50241834 127.92411804 240.50941467 C121.86999381 240.53041282 115.81586947 240.54081681 109.76171875 240.55078125 C107.67134908 240.55483115 105.58097953 240.55894814 103.49061012 240.56313133 C93.66243855 240.58217794 83.83427443 240.59640705 74.00608796 240.6047433 C62.69499821 240.6144977 51.38410508 240.64077247 40.07308453 240.68124419 C31.31013606 240.71151229 22.54724358 240.72622249 13.78424388 240.72952431 C8.56065528 240.73186364 3.33727683 240.74067683 -1.88625526 240.76598549 C-6.81032332 240.78945741 -11.73404571 240.7934235 -16.65815544 240.78322411 C-18.45225812 240.78273316 -20.24637894 240.7889211 -22.04042816 240.80278015 C-47.50305383 240.98825758 -69.2050061 233.81499427 -88.08203125 216.08203125 C-105.87922125 197.16417861 -110.42917171 175.35213595 -109.81054688 150.21484375 C-108.99146988 130.89502754 -97.09520544 113.23190019 -83.66796875 100.08984375 C-81.6875 98.3125 -81.6875 98.3125 -78.6875 96.3125 C-78.30333524 93.87516501 -78.30333524 93.87516501 -78.46484375 91.03515625 C-78.49288086 89.42737305 -78.49288086 89.42737305 -78.52148438 87.78710938 C-78.57272461 86.09811523 -78.57272461 86.09811523 -78.625 84.375 C-78.93853656 73.08101296 -78.09383222 62.90942072 -74 52.3125 C-73.60808472 51.2913208 -73.60808472 51.2913208 -73.20825195 50.24951172 C-69.01072454 39.72403482 -62.59677526 31.35605837 -54.6875 23.3125 C-54.00042969 22.61253906 -53.31335938 21.91257813 -52.60546875 21.19140625 C-38.74523018 7.99975062 -19.10494423 -0.12892334 0 0 Z " fill="#C2CACD" transform="translate(238.6875,175.6875)"/>
<path d="M0 0 C0 55.11 0 110.22 0 167 C-22.5534375 167.12375 -22.5534375 167.12375 -45.5625 167.25 C-50.28119385 167.28641602 -54.9998877 167.32283203 -59.86157227 167.36035156 C-65.69714355 167.37841797 -65.69714355 167.37841797 -68.44322205 167.3817749 C-70.33010144 167.3878513 -72.21696693 167.40177993 -74.10374451 167.42230225 C-95.79058924 167.64605782 -114.11052329 163.59937818 -131 149 C-132.10408203 148.12794922 -132.10408203 148.12794922 -133.23046875 147.23828125 C-146.88104732 136.03117974 -156.90154179 117.53423252 -159 100 C-160.19295977 74.92436133 -156.49713845 54.58649022 -140 35 C-136.25798597 30.94107273 -132.60418793 27.06945862 -128 24 C-126.80767387 21.94996045 -126.80767387 21.94996045 -126 20 C-125.505 20.99 -125.505 20.99 -125 22 C-124.48953125 21.62488281 -123.9790625 21.24976563 -123.453125 20.86328125 C-106.93608586 9.23692568 -86.54330786 5.32976989 -66.6875 8.6875 C-52.80233425 12.13501547 -41.72592288 19.15359259 -30 27 C-29.731875 26.41605469 -29.46375 25.83210938 -29.1875 25.23046875 C-24.90697833 17.19040995 -9.82297367 0 0 0 Z " fill="#E9EFF1" transform="translate(288,248)"/>
<path d="M0 0 C1.30819702 0.00737183 1.30819702 0.00737183 2.64282227 0.01489258 C24.94348163 0.4149136 45.39849775 9.76089245 60.83447266 25.69775391 C70.08277313 35.80152981 79.06628445 50.27821341 79.3125 64.3125 C78.22453125 64.47105469 77.1365625 64.62960938 76.015625 64.79296875 C66.85011855 66.21222497 58.65924353 68.08717755 50.3125 72.3125 C49.32894531 72.80492187 48.34539062 73.29734375 47.33203125 73.8046875 C35.91237507 79.97987027 26.75617362 88.69740206 19.3125 99.3125 C15.6253817 97.99008831 12.80800463 96.35342406 9.6875 94 C-6.33003359 82.55210452 -25.7599551 78.83574819 -45.078125 81.92578125 C-56.50238481 84.14440183 -67.0126609 88.86260727 -76.6875 95.3125 C-78.70532852 90.27593597 -79.00374717 85.95958147 -78.9375 80.625 C-78.92928223 79.82336426 -78.92106445 79.02172852 -78.91259766 78.19580078 C-78.50928316 56.71605138 -69.66004768 38.53925052 -54.6875 23.3125 C-54.00042969 22.61253906 -53.31335938 21.91257813 -52.60546875 21.19140625 C-38.74523018 7.99975062 -19.10494423 -0.12892334 0 0 Z " fill="#FDDE5F" transform="translate(238.6875,175.6875)"/>
<path d="M0 0 C2.40158502 -0.02297475 4.80294764 -0.03974592 7.20458984 -0.05297852 C8.21832924 -0.06363216 8.21832924 -0.06363216 9.25254822 -0.07450104 C14.36831696 -0.0956261 18.79235649 0.44957301 23.625 2.0625 C24.33027832 2.28583008 25.03555664 2.50916016 25.76220703 2.73925781 C46.3182362 9.57112824 62.34031889 24.02253575 72.12304688 43.19335938 C78.40328831 56.13149596 78.40328831 56.13149596 78 63 C76.36804688 63.23783203 76.36804688 63.23783203 74.703125 63.48046875 C65.53761855 64.89972497 57.34674353 66.77467755 49 71 C48.01644531 71.49242187 47.03289062 71.98484375 46.01953125 72.4921875 C34.59987507 78.66737027 25.44367362 87.38490206 18 98 C14.18237194 96.63167453 11.15890947 94.87003864 7.875 92.5 C7.02679688 91.8915625 6.17859375 91.283125 5.3046875 90.65625 C4.54414063 90.1096875 3.78359375 89.563125 3 89 C2.01 88.34 1.02 87.68 0 87 C-0.28621686 84.18882089 -0.37819403 81.59884571 -0.34057617 78.78662109 C-0.34101425 77.9377684 -0.34145233 77.08891571 -0.34190369 76.21434021 C-0.33980882 73.40047432 -0.31644515 70.58719967 -0.29296875 67.7734375 C-0.28737527 65.82573777 -0.283104 63.87803382 -0.28010559 61.93032837 C-0.26863727 56.79769285 -0.23915304 51.665311 -0.20599365 46.53277588 C-0.17533553 41.29792716 -0.16160937 36.06303756 -0.14648438 30.828125 C-0.11428521 20.55197173 -0.06306492 10.27600694 0 0 Z " fill="#FEC902" transform="translate(240,177)"/>
<path d="M0 0 C0.89297791 -0.00570007 1.78595581 -0.01140015 2.70599365 -0.01727295 C4.59906833 -0.02672986 6.49215952 -0.03325967 8.38525391 -0.03710938 C11.27145476 -0.04678974 14.15693589 -0.07779591 17.04296875 -0.109375 C18.88280827 -0.11590764 20.72265289 -0.12115709 22.5625 -0.125 C23.42208313 -0.1373468 24.28166626 -0.1496936 25.16729736 -0.16241455 C30.91165895 -0.14123443 35.31638346 0.65423385 39.69140625 4.73828125 C44.04448512 10.430769 44.836413 14.07535135 44.046875 21.203125 C41.83445061 25.62797378 39.09887884 28.39789157 35.046875 31.203125 C32.37537956 32.09362348 30.78111909 32.3417453 28.0378418 32.38012695 C27.23658371 32.39296219 26.43532562 32.40579742 25.60978699 32.41902161 C24.31600883 32.43010201 24.31600883 32.43010201 22.99609375 32.44140625 C22.10453079 32.449478 21.21296783 32.45754974 20.29438782 32.46586609 C18.40729714 32.47969406 16.52018158 32.49042197 14.63305664 32.49829102 C11.755537 32.51549845 8.87916819 32.55939488 6.00195312 32.60351562 C4.1666751 32.61364355 2.33138732 32.62215934 0.49609375 32.62890625 C-0.36035233 32.64641434 -1.2167984 32.66392242 -2.09919739 32.68196106 C-7.55417278 32.66227608 -10.61763017 31.8183168 -14.953125 28.203125 C-19.44048072 23.35192963 -20.33257478 19.83049743 -20.234375 13.2265625 C-19.59653239 8.6376393 -16.66704874 5.83205782 -13.328125 2.890625 C-8.94173446 -0.22602091 -5.23438236 0.02563789 0 0 Z " fill="#FCDE60" transform="translate(99.953125,239.796875)"/>
<path d="M0 0 C4.57644843 2.29316638 7.25242761 5.59373567 8.87109375 10.34375 C9.7938039 15.76467213 8.53424489 19.61939284 5.87109375 24.34375 C3.11682789 27.89450334 -0.0209451 31.1019681 -3.12890625 34.34375 C-3.67611328 34.91818848 -4.22332031 35.49262695 -4.78710938 36.08447266 C-6.57707374 37.95323114 -8.38152501 39.80678596 -10.19140625 41.65625 C-10.75641846 42.24277344 -11.32143066 42.82929688 -11.90356445 43.43359375 C-16.91531453 48.48353545 -22.28513582 53.38351594 -29.62890625 53.96875 C-34.5802737 53.66892671 -38.49164684 51.67653295 -42.12890625 48.34375 C-44.85118647 44.65146188 -45.56053227 41.97033405 -45.56640625 37.40625 C-45.58574219 36.40722656 -45.60507812 35.40820312 -45.625 34.37890625 C-44.6263944 28.2693271 -40.12084984 24.08056528 -35.8828125 19.83203125 C-35.38982162 19.33712692 -34.89683075 18.8422226 -34.38890076 18.33232117 C-33.35343729 17.29550622 -32.31548206 16.26117426 -31.27514648 15.22924805 C-29.69212525 13.65696413 -28.12009583 12.07425468 -26.54882812 10.49023438 C-25.53579705 9.47852463 -24.52214588 8.46743531 -23.5078125 7.45703125 C-22.59588135 6.54735596 -21.6839502 5.63768066 -20.74438477 4.70043945 C-14.48806223 -0.93684995 -8.19428235 -2.52594392 0 0 Z " fill="#FCC704" transform="translate(349.12890625,139.65625)"/>
<path d="M0 0 C4.23301121 2.82200747 7.17159664 5.95228992 8.8125 10.875 C8.93392334 13.82687495 9.00069773 16.75435018 9.015625 19.70703125 C9.02132507 20.57639816 9.02702515 21.44576508 9.03289795 22.34147644 C9.04234278 24.18149602 9.04887988 26.02153248 9.05273438 27.86157227 C9.06242737 30.66648144 9.0934501 33.47065379 9.125 36.27539062 C9.13153168 38.06509983 9.1367815 39.85481426 9.140625 41.64453125 C9.1529718 42.47910355 9.1653186 43.31367584 9.17803955 44.17353821 C9.1565117 49.8454409 8.30529756 54.20459854 4.27734375 58.51953125 C-1.415144 62.87261012 -5.05972635 63.664538 -12.1875 62.875 C-17.50315158 60.21717421 -21.28986008 56.56791975 -23.1875 50.875 C-23.49010302 45.1092623 -23.54368591 39.34393874 -23.5925293 33.57104492 C-23.6140777 31.65744953 -23.64814318 29.74395186 -23.69506836 27.83081055 C-23.76235853 25.05994019 -23.78957574 22.29110545 -23.80859375 19.51953125 C-23.83642441 18.67340775 -23.86425507 17.82728424 -23.89292908 16.95552063 C-23.87054761 10.41684262 -21.74274296 6.53118061 -17.1875 1.875 C-11.63627909 -1.98671889 -6.24215246 -2.20311263 0 0 Z " fill="#FCDE60" transform="translate(247.1875,97.125)"/>
<path d="M0 0 C4.42482912 2.65795435 8.1004455 5.792837 11.73046875 9.4296875 C12.50611931 10.19891037 12.50611931 10.19891037 13.29743958 10.9836731 C14.38140697 12.0619348 15.46281405 13.14277599 16.54174805 14.22607422 C18.18482154 15.87231638 19.84080564 17.50475455 21.49804688 19.13671875 C22.55549775 20.19189696 23.61216548 21.24786071 24.66796875 22.3046875 C25.15863327 22.78614227 25.64929779 23.26759705 26.15483093 23.76364136 C30.16810467 27.83115148 32.69721151 31.66420308 33.4375 37.375 C32.73478983 43.19745568 30.69050486 47.3919588 26.4375 51.4375 C23.17452065 53.52915343 20.49813613 54.18745322 16.6875 54.3125 C15.57955078 54.36857422 15.57955078 54.36857422 14.44921875 54.42578125 C8.53360235 53.39738861 4.15082787 48.45898734 0.05078125 44.3515625 C-0.48851517 43.81655121 -1.02781158 43.28153992 -1.58345032 42.73031616 C-2.71449745 41.60497699 -3.84298075 40.4770556 -4.96899414 39.34667969 C-6.68448921 37.62801635 -8.4129112 35.92313585 -10.14257812 34.21875 C-11.24560194 33.11799885 -12.34784256 32.01646221 -13.44921875 30.9140625 C-13.96175705 30.41073395 -14.47429535 29.9074054 -15.00236511 29.38882446 C-19.12961256 25.20812231 -21.74304518 21.39824495 -22.375 15.5 C-21.71113795 9.30395422 -19.0192321 5.01554936 -14.2265625 1.140625 C-9.77756174 -1.13851223 -4.81337908 -0.97662764 0 0 Z " fill="#FCDE60" transform="translate(144,139)"/>
<path d="M0 0 C7.92191436 0 7.92191436 0 10.8125 2.6875 C11.37582031 3.18636719 11.93914062 3.68523437 12.51953125 4.19921875 C16.46695692 9.00070486 16.30727539 14.110967 16.30078125 20.02734375 C16.30506638 20.89388077 16.3093515 21.76041779 16.31376648 22.6532135 C16.31949543 24.48128386 16.32002064 26.30937701 16.31567383 28.13745117 C16.31251449 30.92471436 16.33598832 33.7109148 16.36132812 36.49804688 C16.36360143 38.2786445 16.36430447 40.05924497 16.36328125 41.83984375 C16.372491 42.66814194 16.38170074 43.49644012 16.39118958 44.34983826 C16.33923388 50.89134225 14.93753519 55.01842992 10.25 59.8125 C7 62 7 62 0 63 C0 42.21 0 21.42 0 0 Z " fill="#FDC802" transform="translate(240,97)"/>
</svg>
